<?xml version="1.0" encoding="UTF-8" standalone="no"?> <svg width="512" height="512" viewBox="0 0 512 512" fill="none" xmlns="http://www.w3.org/2000/svg">
<path d="M393.7 456.494C392.568 450.837 391.086 445.255 389.262 439.782C382.632 419.893 371.593 401.759 356.97 386.736C342.348 371.713 324.519 360.189 304.816 353.024L280 352H232L207.185 353.024C187.482 360.189 169.653 371.713 155.031 386.736C140.408 401.759 129.369 419.893 122.739 439.782V439.782C120.915 445.255 119.433 450.837 118.301 456.494L112 488H400L393.7 456.494Z" fill="#C92535"/>
<path d="M302.81 378.552L256 416L209.19 378.552H302.81Z" fill="#ECEBE6"/>
<path d="M401.488 158.394L391.229 144.4C376.591 124.439 357.456 108.206 335.375 97.0179C313.295 85.8294 288.889 79.9993 264.136 80H247.864C223.111 79.9993 198.705 85.8294 176.625 97.0179C154.544 108.206 135.409 124.439 120.771 144.4L110.511 158.391C90.686 185.425 79.998 218.076 80 251.6V258.4C79.9996 282.543 85.546 306.363 96.211 328.022C106.876 349.682 122.375 368.601 141.511 383.321V383.321C169.062 404.512 202.846 416.001 237.605 416H274.4C309.159 416 342.943 404.509 370.493 383.316V383.316C389.628 368.596 405.125 349.677 415.79 328.019C426.454 306.36 432 282.542 432 258.4V251.6C432.001 218.077 421.313 185.427 401.488 158.394V158.394Z" fill="#D6D5D0"/>
<path d="M336 168C351.846 157.436 369.609 150.078 388.284 146.343L400 144.748V120H399.5C366.353 120.001 334.383 132.287 309.766 154.485C295.348 147.586 279.568 144.004 263.585 144H248.415C232.43 144.003 216.649 147.586 202.229 154.485C177.614 132.288 145.645 120.002 112.5 120H112V125.065C112.002 131.5 112.484 137.925 113.441 144.288L123.716 146.343C142.391 150.078 160.154 157.436 176 168V168C165.42 178.58 156.829 190.978 150.639 204.6L146.687 213.3C139.684 225.555 136.001 239.425 136 253.54V253.54C136 270.563 141.356 287.155 151.31 300.965C161.264 314.776 175.31 325.104 191.46 330.487L209.523 336.508C224.41 341.47 240 344 255.692 344H256.308C272 344 287.59 341.47 302.477 336.508L320.54 330.487C336.69 325.104 350.736 314.776 360.69 300.965C370.644 287.155 376 270.563 376 253.54C375.999 239.425 372.316 225.555 365.313 213.3L361.361 204.6C355.171 190.978 346.58 178.58 336 168Z" fill="#DA7E21"/>
<path d="M211 280C228.673 280 243 265.673 243 248C243 230.327 228.673 216 211 216C193.327 216 179 230.327 179 248C179 265.673 193.327 280 211 280Z" fill="#BB6C1C"/>
<path d="M184 293C184 298.284 182.45 303.451 179.542 307.863C176.634 312.275 172.496 315.736 167.64 317.82C153.2 306.706 142.922 291.056 138.46 273.39C142.291 269.762 147.101 267.338 152.296 266.415C157.49 265.493 162.841 266.113 167.687 268.2C172.533 270.286 176.66 273.748 179.56 278.155C182.459 282.563 184.003 287.724 184 293V293Z" fill="#FFA6B7"/>
<path d="M373.54 273.37C369.082 291.035 358.811 306.688 344.38 317.81C340.753 316.257 337.511 313.928 334.881 310.986C332.252 308.045 330.299 304.563 329.16 300.785C328.022 297.008 327.725 293.027 328.291 289.122C328.857 285.218 330.272 281.485 332.437 278.186C334.601 274.887 337.462 272.103 340.819 270.03C344.175 267.956 347.946 266.644 351.864 266.184C355.783 265.725 359.755 266.131 363.5 267.372C367.245 268.614 370.672 270.661 373.54 273.37Z" fill="#FFA6B7"/>
<path d="M256 312C264.837 312 272 306.627 272 300C272 293.373 264.837 288 256 288C247.163 288 240 293.373 240 300C240 306.627 247.163 312 256 312Z" fill="#7A4922"/>
<path d="M176 168C160.154 157.436 142.391 150.078 123.716 146.343L113.441 144.288C117.314 170.117 128.902 194.172 146.687 213.298L150.639 204.598C156.829 190.977 165.42 178.58 176 168V168Z" fill="#E6E5E0"/>
<path d="M388.284 146.343C369.609 150.078 351.846 157.436 336 168V168C346.58 178.58 355.171 190.978 361.361 204.6L365.313 213.3L380.724 196.729C393.112 183.408 399.999 165.891 400 147.7V144.753L388.284 146.343Z" fill="#E6E5E0"/>
<path d="M225 466C229.971 466 234 461.971 234 457C234 452.029 229.971 448 225 448C220.029 448 216 452.029 216 457C216 461.971 220.029 466 225 466Z" fill="black"/>
<path d="M136.634 389.657C137.664 390.449 138.703 391.227 139.752 391.992C125.101 410.33 115.054 431.91 110.452 454.926L104.152 486.432C103.92 487.593 103.948 488.791 104.235 489.939C104.522 491.088 105.061 492.158 105.811 493.074C106.562 493.989 107.507 494.726 108.577 495.232C109.647 495.738 110.816 496 112 496H400C401.183 496 402.352 495.737 403.422 495.231C404.492 494.725 405.436 493.988 406.186 493.072C406.937 492.157 407.475 491.087 407.762 489.939C408.048 488.79 408.077 487.593 407.845 486.432L401.545 454.925C400.347 448.943 398.779 443.041 396.852 437.252C391.396 420.827 383.067 405.502 372.252 391.99C373.298 391.224 374.337 390.446 375.368 389.657C395.475 374.19 411.759 354.311 422.965 331.553C434.172 308.795 440 283.767 440 258.4V251.6C440.076 216.364 428.838 182.035 407.939 153.666C407.887 153.594 407.827 153.531 407.772 153.461C407.909 151.55 408 149.63 408 147.699V120C408 117.878 407.157 115.843 405.657 114.343C404.156 112.843 402.122 112 400 112H399.5C391.136 111.999 382.788 112.735 374.553 114.2C374.494 114.144 374.441 114.084 374.38 114.029C344.047 86.9447 304.801 71.9826 264.136 72H247.864C207.197 71.9818 167.948 86.9443 137.614 114.03C137.553 114.085 137.5 114.145 137.441 114.201C129.208 112.736 120.862 112 112.5 112H112C109.878 112 107.843 112.843 106.343 114.343C104.843 115.843 104 117.878 104 120V125.065C104 133.605 104.792 142.126 106.365 150.52L104.065 153.662C83.1639 182.032 71.9239 216.363 71.9999 251.6V258.4C71.9998 283.768 77.8278 308.797 89.0343 331.556C100.241 354.314 116.526 374.194 136.634 389.661V389.657ZM126.146 458.063C130.345 437.066 139.623 417.417 153.167 400.832C171.976 411.935 192.779 419.242 214.4 422.34C213.994 423.626 213.882 424.986 214.072 426.321C214.261 427.655 214.748 428.93 215.496 430.052C216.244 431.174 217.235 432.113 218.394 432.801C219.554 433.489 220.853 433.907 222.196 434.026C223.538 434.145 224.891 433.961 226.153 433.488C227.416 433.015 228.556 432.264 229.489 431.292C230.423 430.32 231.127 429.15 231.548 427.869C231.97 426.589 232.098 425.23 231.925 423.893C233.816 423.959 235.709 424 237.604 424H248V480H176V464C176 461.878 175.157 459.843 173.657 458.343C172.156 456.843 170.122 456 168 456C165.878 456 163.843 456.843 162.343 458.343C160.843 459.843 160 461.878 160 464V480H121.759L126.146 458.063ZM381.671 442.312C383.39 447.471 384.787 452.731 385.854 458.062L390.241 480H352V464C352 461.878 351.157 459.843 349.657 458.343C348.156 456.843 346.122 456 344 456C341.878 456 339.843 456.843 338.343 458.343C336.843 459.843 336 461.878 336 464V480H264V424H274.4C304.109 423.944 333.262 415.945 358.839 400.831C368.92 413.147 376.658 427.206 381.671 442.312V442.312ZM343.528 308.134C339.693 305.224 337.107 300.967 336.291 296.223C335.475 291.48 336.49 286.603 339.132 282.579C341.774 278.555 345.844 275.684 350.522 274.547C355.199 273.41 360.133 274.091 364.328 276.452C360.304 288.659 353.129 299.588 343.528 308.134V308.134ZM367.6 199.093C362.558 188.484 356.125 178.595 348.471 169.686C361.336 162.314 375.312 157.079 389.854 154.186L391.709 153.814C390.381 167.818 384.459 180.989 374.866 191.277L367.6 199.093ZM247.864 88H264.136C297.135 87.9855 329.21 98.8965 355.355 119.03C338.181 124.645 322.238 133.491 308.386 145.093C294.205 139.116 278.975 136.024 263.586 136H248.416C233.027 136.024 217.797 139.116 203.616 145.093C189.764 133.491 173.821 124.645 156.647 119.03C182.791 98.8969 214.866 87.9859 247.864 88V88ZM196.871 160.427C198.048 161.488 199.514 162.176 201.082 162.403C202.651 162.63 204.251 162.386 205.681 161.702C209.038 160.098 212.483 158.686 216 157.473V176C216 178.122 216.843 180.157 218.343 181.657C219.843 183.157 221.878 184 224 184C226.122 184 228.156 183.157 229.657 181.657C231.157 180.157 232 178.122 232 176V153.387C237.287 152.492 242.638 152.03 248 152.006V176C248 178.122 248.843 180.157 250.343 181.657C251.843 183.157 253.878 184 256 184C258.122 184 260.156 183.157 261.657 181.657C263.157 180.157 264 178.122 264 176V152.006C269.362 152.03 274.713 152.492 280 153.387V176C280 178.122 280.843 180.157 282.343 181.657C283.843 183.157 285.878 184 288 184C290.122 184 292.156 183.157 293.657 181.657C295.157 180.157 296 178.122 296 176V157.473C299.517 158.686 302.962 160.098 306.319 161.702C307.749 162.386 309.349 162.63 310.918 162.403C312.486 162.176 313.952 161.488 315.129 160.427C336.347 141.267 363.461 129.908 392 128.223V137.441L386.715 138.498C367.009 142.42 348.269 150.183 331.562 161.344C330.577 162.001 329.75 162.868 329.141 163.882C328.532 164.897 328.155 166.034 328.039 167.212C327.922 168.39 328.068 169.579 328.467 170.693C328.865 171.808 329.506 172.82 330.343 173.657C340.252 183.553 348.292 195.157 354.078 207.91L356.64 213.548L352.946 213.467C351.895 213.444 350.85 213.628 349.871 214.008C348.892 214.389 347.997 214.959 347.237 215.685C346.478 216.412 345.869 217.281 345.446 218.242C345.022 219.204 344.793 220.24 344.769 221.291C344.746 222.341 344.93 223.386 345.311 224.365C345.691 225.345 346.261 226.24 346.988 226.999C347.714 227.758 348.583 228.367 349.545 228.791C350.507 229.214 351.542 229.444 352.593 229.467L363.993 229.719C365.011 232.675 365.839 235.693 366.472 238.754L357.538 239.007C355.416 239.037 353.393 239.908 351.914 241.429C350.434 242.95 349.62 244.997 349.649 247.119C349.679 249.24 350.55 251.263 352.071 252.743C353.593 254.222 355.639 255.037 357.761 255.007H357.991L367.972 254.724C367.941 256.633 367.838 258.526 367.663 260.404C360.197 257.502 351.961 257.25 344.332 259.69C336.702 262.131 330.141 267.116 325.746 273.812C321.35 280.508 319.386 288.511 320.181 296.481C320.976 304.452 324.483 311.908 330.115 317.604C326.246 319.731 322.194 321.505 318.006 322.904L299.942 328.925C285.873 333.617 271.139 336.006 256.308 336H255.692C240.859 336.004 226.123 333.613 212.053 328.918L193.99 322.9C189.803 321.501 185.752 319.727 181.884 317.6C186.399 313.041 189.571 307.328 191.054 301.086C192.537 294.844 192.272 288.314 190.29 282.212C198.39 287.119 207.968 288.994 217.321 287.505C226.674 286.016 235.195 281.258 241.371 274.078C247.547 266.898 250.977 257.761 251.051 248.291C251.125 238.82 247.838 229.631 241.775 222.355C235.713 215.079 227.266 210.189 217.938 208.554C208.61 206.919 199.004 208.644 190.828 213.424C182.652 218.203 176.435 225.727 173.283 234.658C170.132 243.588 170.249 253.347 173.614 262.2C169.156 259.793 164.229 258.382 159.173 258.066C154.116 257.75 149.052 258.536 144.329 260.369C144.155 258.499 144.053 256.613 144.023 254.712L154 255H154.23C156.352 255.03 158.398 254.215 159.919 252.736C161.441 251.256 162.312 249.233 162.341 247.112C162.371 244.99 161.556 242.943 160.077 241.422C158.598 239.901 156.575 239.03 154.453 239L145.519 238.747C146.153 235.687 146.981 232.67 148 229.715L159.405 229.463C160.455 229.44 161.491 229.21 162.453 228.787C163.415 228.363 164.284 227.754 165.01 226.995C165.737 226.236 166.306 225.341 166.687 224.361C167.068 223.382 167.252 222.337 167.228 221.287C167.205 220.236 166.975 219.2 166.552 218.238C166.128 217.277 165.52 216.408 164.76 215.681C164.001 214.955 163.106 214.385 162.127 214.004C161.147 213.624 160.102 213.44 159.052 213.463L155.358 213.544L157.92 207.906C163.706 195.153 171.746 183.549 181.655 173.653C182.492 172.816 183.133 171.804 183.531 170.689C183.929 169.575 184.076 168.386 183.959 167.208C183.842 166.03 183.466 164.893 182.857 163.878C182.247 162.864 181.421 161.997 180.436 161.34C163.729 150.181 144.989 142.42 125.284 138.5L120.646 137.573C120.329 134.477 120.127 131.362 120.041 128.227C148.565 129.92 175.663 141.277 196.871 160.427ZM144.686 198.5C134.745 185.421 127.573 170.455 123.605 154.514C137.625 157.453 151.097 162.574 163.53 169.69C156.019 178.43 149.684 188.116 144.686 198.5ZM168.474 308.14C158.876 299.599 151.701 288.676 147.674 276.475C151.866 274.105 156.803 273.417 161.484 274.551C166.165 275.684 170.24 278.554 172.884 282.579C175.528 286.605 176.543 291.484 175.725 296.23C174.906 300.976 172.314 305.233 168.474 308.14ZM187 248C187 243.253 188.407 238.613 191.045 234.666C193.682 230.72 197.43 227.643 201.815 225.827C206.201 224.01 211.027 223.535 215.682 224.461C220.338 225.387 224.614 227.673 227.97 231.029C231.327 234.386 233.613 238.662 234.539 243.318C235.465 247.973 234.99 252.799 233.173 257.184C231.357 261.57 228.28 265.318 224.334 267.955C220.387 270.592 215.747 272 211 272C204.637 271.993 198.537 269.462 194.038 264.962C189.538 260.463 187.007 254.363 187 248V248ZM87.9999 251.6C87.9354 222.902 96.1878 194.8 111.759 170.693C117.394 186.728 125.959 201.576 137.019 214.482C127.793 233.401 125.559 254.974 130.712 275.382C130.726 275.437 130.74 275.492 130.755 275.547C134.429 290.014 141.683 303.324 151.849 314.253C162.015 325.181 174.767 333.377 188.931 338.085L206.994 344.106C222.696 349.344 239.141 352.011 255.694 352.006H256.31C272.863 352.011 289.308 349.344 305.01 344.106L323.074 338.085C335.105 334.075 346.142 327.542 355.446 318.924C364.751 310.307 372.108 299.802 377.028 288.113C381.947 276.423 384.314 263.819 383.971 251.141C383.628 238.464 380.584 226.005 375.04 214.599L386.586 202.184C393.82 194.407 399.432 185.266 403.092 175.295C416.834 198.371 424.06 224.742 424 251.6V258.4C423.999 298.076 408.237 336.127 380.182 364.182C352.126 392.237 314.076 407.999 274.4 408H237.6C197.924 407.998 159.874 392.237 131.818 364.181C103.763 336.126 88.0015 298.076 87.9999 258.4V251.6Z" fill="black"/>
<path d="M211 261C218.18 261 224 255.18 224 248C224 240.82 218.18 235 211 235C203.82 235 198 240.82 198 248C198 255.18 203.82 261 211 261Z" fill="black"/>
<path d="M301 261C308.18 261 314 255.18 314 248C314 240.82 308.18 235 301 235C293.82 235 288 240.82 288 248C288 255.18 293.82 261 301 261Z" fill="black"/>
<path d="M232 300C232.027 304.671 233.867 309.149 237.131 312.49L236.422 312.845C234.541 313.804 233.116 315.467 232.456 317.472C231.797 319.478 231.956 321.662 232.901 323.55C233.845 325.438 235.497 326.877 237.497 327.552C239.497 328.227 241.683 328.084 243.578 327.155L256 320.944L268.422 327.155C269.363 327.635 270.389 327.923 271.442 328.004C272.494 328.085 273.553 327.957 274.556 327.627C275.559 327.297 276.486 326.772 277.285 326.082C278.084 325.392 278.739 324.55 279.211 323.606C279.683 322.662 279.964 321.633 280.037 320.58C280.11 319.527 279.973 318.469 279.635 317.469C279.298 316.469 278.765 315.545 278.069 314.751C277.373 313.958 276.526 313.31 275.578 312.845L274.869 312.49C278.133 309.149 279.973 304.671 280 300C280 288.785 269.458 280 256 280C242.542 280 232 288.785 232 300ZM256 296C260.963 296 264 298.59 264 300C264 301.41 260.965 304 256 304C251.04 304 248 301.41 248 300C248 298.59 251.037 296 256 296Z" fill="black"/>
<g>
    <circle fill="#f5f3ed" cx="415" cy="100" r="65"/>
</g>
<g>
    <circle fill="#71C386" cx="415" cy="100" r="53"/>
</g>
</svg>
